M48
; DRILL file {KiCad (5.1.5-0)} date 2020年08月15日 土曜日 12:00:30
; FORMAT={-:-/ absolute / metric / decimal}
; #@! TF.CreationDate,2020-08-15T12:00:30+09:00
; #@! TF.GenerationSoftware,Kicad,Pcbnew,(5.1.5-0)
; #@! TF.FileFunction,Plated,1,2,PTH
FMAT,2
METRIC
T1C0.800
T2C1.000
%
G90
G05
T1
X34.036Y46.99
X34.036Y41.99
X22.86Y87.63
X22.86Y85.63
X46.99Y102.235
X46.99Y99.695
X50.292Y69.596
X50.292Y59.436
X40.386Y58.928
X40.386Y48.768
X23.495Y70.485
X23.495Y67.945
X6.02Y26.797
X6.02Y24.257
X6.02Y21.717
X41.91Y71.294
X41.91Y66.294
X26.035Y62.484
X31.035Y62.484
X21.59Y12.7
X21.59Y10.16
X46.99Y85.725
X46.99Y83.185
X24.765Y15.875
X24.765Y13.335
X11.938Y47.752
X22.098Y47.752
X48.26Y55.372
X50.8Y55.372
X3.3Y52.0
X8.38Y54.54
X16.0Y52.0
X31.75Y12.7
X31.75Y10.16
X41.91Y102.235
X41.91Y99.695
X15.748Y33.02
X25.908Y33.02
X31.75Y29.845
X34.29Y29.845
X28.575Y15.875
X28.575Y13.335
X40.386Y17.526
X42.926Y17.526
X7.366Y66.167
X17.526Y66.167
X23.114Y57.15
X23.114Y54.61
X17.272Y36.322
X27.432Y36.322
X15.24Y21.59
X15.24Y16.59
X19.05Y15.875
X21.59Y15.875
X25.4Y47.752
X25.4Y42.752
X31.75Y96.52
X31.75Y88.9
X34.29Y96.52
X34.29Y88.9
X36.83Y96.52
X36.83Y88.9
X39.37Y96.52
X39.37Y88.9
X41.91Y96.52
X41.91Y88.9
X44.45Y96.52
X44.45Y88.9
X46.99Y96.52
X46.99Y88.9
X34.29Y102.235
X34.29Y99.695
X11.938Y44.45
X22.098Y44.45
X43.18Y85.725
X43.18Y75.565
X31.75Y33.02
X41.91Y33.02
X22.86Y95.25
X22.86Y93.25
X34.036Y67.945
X34.036Y65.405
X34.29Y85.725
X34.29Y83.185
X39.37Y85.725
X39.37Y75.565
X15.24Y29.13
X15.24Y24.13
X46.99Y73.66
X46.99Y63.5
X11.684Y21.59
X11.684Y11.43
X18.415Y12.7
X18.415Y2.54
X10.363Y72.238
X12.903Y72.238
X15.443Y72.238
X19.05Y26.67
X19.05Y19.05
X21.59Y26.67
X21.59Y19.05
X24.13Y26.67
X24.13Y19.05
X26.67Y26.67
X26.67Y19.05
X29.21Y26.67
X29.21Y19.05
X31.75Y26.67
X31.75Y19.05
X34.29Y26.67
X34.29Y19.05
X3.3Y60.0
X8.38Y62.54
X16.0Y60.0
X37.973Y102.235
X37.973Y99.695
X23.495Y77.343
X23.495Y73.843
X27.051Y70.485
X27.051Y67.945
X40.386Y26.67
X42.926Y26.67
X50.292Y107.0
X50.292Y96.84
X43.434Y53.34
X43.434Y43.18
X37.084Y71.318
X37.084Y67.818
X27.94Y91.44
X27.94Y86.44
X34.925Y50.8
X37.465Y50.8
X27.94Y98.98
X27.94Y93.98
X31.75Y15.875
X34.29Y15.875
X30.861Y70.485
X30.861Y67.945
X19.05Y39.624
X29.21Y39.624
X30.861Y77.343
X30.861Y73.843
X19.05Y29.845
X21.59Y29.845
X20.32Y75.438
X20.32Y65.278
X40.386Y45.974
X40.386Y35.814
X26.67Y50.8
X29.21Y50.8
T2
X55.2Y92.5
X55.2Y90.0
X55.2Y87.5
X41.719Y22.162
X34.544Y74.168
X55.2Y78.0
X55.2Y75.5
X55.2Y73.0
X17.78Y95.25
X17.78Y91.44
X7.62Y39.814
X10.16Y39.814
X12.7Y39.814
X55.2Y107.0
X55.2Y104.5
X55.2Y102.0
X41.91Y62.738
X55.2Y63.5
X55.2Y61.0
X55.2Y58.5
X17.78Y87.63
X17.78Y83.82
X10.795Y101.6
X10.795Y99.06
X10.795Y96.52
X10.795Y93.98
X10.795Y91.44
X10.795Y88.9
X10.795Y86.36
X10.795Y83.82
X13.335Y101.6
X13.335Y99.06
X13.335Y96.52
X13.335Y93.98
X13.335Y91.44
X13.335Y88.9
X13.335Y86.36
X13.335Y83.82
X43.942Y58.928
T2
G00X46.85Y30.25
M15
G01X46.85Y31.75
M16
G05
G00X52.7Y30.25
M15
G01X52.7Y31.75
M16
G05
G00X58.05Y30.25
M15
G01X58.05Y31.75
M16
G05
G00X46.85Y39.25
M15
G01X46.85Y40.75
M16
G05
G00X52.7Y39.25
M15
G01X52.7Y40.75
M16
G05
G00X58.05Y39.25
M15
G01X58.05Y40.75
M16
G05
G00X46.85Y12.25
M15
G01X46.85Y13.75
M16
G05
G00X52.7Y12.25
M15
G01X52.7Y13.75
M16
G05
G00X58.05Y12.25
M15
G01X58.05Y13.75
M16
G05
G00X46.85Y3.25
M15
G01X46.85Y4.75
M16
G05
G00X52.7Y3.25
M15
G01X52.7Y4.75
M16
G05
G00X58.05Y3.25
M15
G01X58.05Y4.75
M16
G05
G00X46.85Y48.25
M15
G01X46.85Y49.75
M16
G05
G00X52.7Y48.25
M15
G01X52.7Y49.75
M16
G05
G00X58.05Y48.25
M15
G01X58.05Y49.75
M16
G05
G00X46.85Y21.25
M15
G01X46.85Y22.75
M16
G05
G00X52.7Y21.25
M15
G01X52.7Y22.75
M16
G05
G00X58.05Y21.25
M15
G01X58.05Y22.75
M16
G05
T0
M30
