M48
; DRILL file {KiCad 5.1.5-52549c5~86~ubuntu18.04.1} date Sun 03 May 2020 01:58:46 AM JST
; FORMAT={-:-/ absolute / metric / decimal}
; #@! TF.CreationDate,2020-05-03T01:58:46+09:00
; #@! TF.GenerationSoftware,Kicad,Pcbnew,5.1.5-52549c5~86~ubuntu18.04.1
; #@! TF.FileFunction,Plated,1,2,PTH
FMAT,2
METRIC
T1C0.800
T2C1.000
%
G90
G05
T1
X5.08Y71.32
X15.24Y71.32
X25.4Y5.28
X35.56Y5.28
X58.42Y40.84
X68.58Y40.84
X46.99Y76.39
X46.99Y61.15
X49.53Y76.39
X49.53Y61.15
X52.07Y76.39
X52.07Y61.15
X54.61Y76.39
X54.61Y61.15
X57.15Y76.39
X57.15Y61.15
X59.69Y76.39
X59.69Y61.15
X62.23Y76.39
X62.23Y61.15
X64.77Y76.39
X64.77Y61.15
X40.64Y17.98
X40.64Y7.82
X54.61Y92.91
X54.61Y82.75
X17.78Y73.86
X27.94Y73.86
X6.35Y100.53
X16.51Y100.53
X53.34Y31.95
X53.34Y21.79
X38.1Y104.34
X48.26Y104.34
X52.07Y92.91
X52.07Y82.75
X45.72Y15.44
X45.72Y5.28
X46.99Y54.81
X57.15Y54.81
X54.61Y98.95
X54.61Y95.45
X49.53Y98.95
X49.53Y95.45
X48.26Y38.3
X58.42Y38.3
X59.69Y57.35
X59.69Y47.19
X15.24Y78.94
X25.4Y78.94
X68.58Y86.56
X68.58Y76.4
X20.32Y104.34
X30.48Y104.34
X35.56Y48.46
X35.56Y38.3
X64.77Y19.25
X64.77Y17.25
X55.88Y31.95
X55.88Y21.79
X59.69Y83.7
X59.69Y80.2
X15.24Y68.78
X25.4Y68.78
X15.24Y94.18
X15.24Y89.18
X10.24Y73.86
X15.24Y73.86
X22.86Y76.4
X33.02Y76.4
X22.86Y31.95
X22.86Y21.79
X45.72Y43.38
X45.72Y33.22
X58.42Y31.95
X58.42Y21.79
X35.56Y17.98
X35.56Y7.82
X10.16Y86.56
X10.16Y76.4
X62.23Y57.35
X72.39Y57.35
X20.32Y97.99
X20.32Y90.37
X22.86Y97.99
X22.86Y90.37
X25.4Y97.99
X25.4Y90.37
X27.94Y97.99
X27.94Y90.37
X30.48Y97.99
X30.48Y90.37
X33.02Y97.99
X33.02Y90.37
X35.56Y97.99
X35.56Y90.37
X52.07Y52.27
X52.07Y42.11
X25.4Y7.82
X30.4Y7.82
X22.86Y17.98
X33.02Y17.98
X38.1Y101.8
X48.26Y101.8
X48.26Y35.76
X58.42Y35.76
X69.97Y63.7
X74.97Y63.7
X49.53Y30.6
X49.53Y25.6
X30.48Y29.41
X30.48Y21.79
X33.02Y29.41
X33.02Y21.79
X35.56Y29.41
X35.56Y21.79
X38.1Y29.41
X38.1Y21.79
X40.64Y29.41
X40.64Y21.79
X43.18Y29.41
X43.18Y21.79
X45.72Y29.41
X45.72Y21.79
X25.4Y33.22
X35.56Y33.22
X41.99Y86.56
X46.99Y86.56
X22.86Y12.9
X33.02Y12.9
X40.005Y95.704
X40.005Y90.704
X21.59Y54.81
X31.75Y54.81
X64.77Y83.7
X64.77Y80.2
X26.67Y26.79
X26.67Y21.79
X25.4Y101.8
X35.56Y101.8
X69.93Y70.05
X74.93Y70.05
X49.53Y92.91
X49.53Y82.75
X30.48Y48.46
X30.48Y38.3
X44.45Y80.2
X54.61Y80.2
X64.77Y26.33
X64.77Y24.33
X20.32Y35.76
X30.48Y35.76
X43.18Y17.98
X53.34Y17.98
X43.18Y15.44
X43.18Y5.28
X17.78Y15.44
X27.94Y15.44
X35.56Y86.56
X35.56Y76.4
X17.78Y48.46
X27.94Y48.46
T2
X4.8Y66.5
X4.8Y64.0
X4.8Y61.5
X62.23Y104.34
X69.85Y101.8
X74.93Y104.34
X62.23Y92.91
X69.85Y90.37
X74.93Y92.91
X4.8Y81.0
X4.8Y78.5
X4.8Y76.0
X4.8Y110.0
X4.8Y107.5
X4.8Y105.0
X4.8Y95.5
X4.8Y93.0
X4.8Y90.5
X72.39Y34.49
X72.39Y31.95
X72.39Y29.41
X72.39Y26.87
X72.39Y24.33
X72.39Y21.79
X72.39Y19.25
X72.39Y16.71
X74.93Y34.49
X74.93Y31.95
X74.93Y29.41
X74.93Y26.87
X74.93Y24.33
X74.93Y21.79
X74.93Y19.25
X74.93Y16.71
T0
M30
