M48
; DRILL file {KiCad 5.1.5-52549c5~86~ubuntu18.04.1} date Sun 03 May 2020 01:58:46 AM JST
; FORMAT={-:-/ absolute / metric / decimal}
; #@! TF.CreationDate,2020-05-03T01:58:46+09:00
; #@! TF.GenerationSoftware,Kicad,Pcbnew,5.1.5-52549c5~86~ubuntu18.04.1
; #@! TF.FileFunction,Plated,1,2,PTH
FMAT,2
METRIC
T1C1.000
%
G90
G05
T1
G00X1.95Y15.25
M15
G01X1.95Y13.75
M16
G05
G00X7.3Y15.25
M15
G01X7.3Y13.75
M16
G05
G00X13.15Y15.25
M15
G01X13.15Y13.75
M16
G05
G00X1.95Y42.25
M15
G01X1.95Y40.75
M16
G05
G00X7.3Y42.25
M15
G01X7.3Y40.75
M16
G05
G00X13.15Y42.25
M15
G01X13.15Y40.75
M16
G05
G00X1.95Y33.25
M15
G01X1.95Y31.75
M16
G05
G00X7.3Y33.25
M15
G01X7.3Y31.75
M16
G05
G00X13.15Y33.25
M15
G01X13.15Y31.75
M16
G05
G00X1.95Y51.25
M15
G01X1.95Y49.75
M16
G05
G00X7.3Y51.25
M15
G01X7.3Y49.75
M16
G05
G00X13.15Y51.25
M15
G01X13.15Y49.75
M16
G05
G00X1.95Y6.25
M15
G01X1.95Y4.75
M16
G05
G00X7.3Y6.25
M15
G01X7.3Y4.75
M16
G05
G00X13.15Y6.25
M15
G01X13.15Y4.75
M16
G05
G00X1.95Y24.25
M15
G01X1.95Y22.75
M16
G05
G00X7.3Y24.25
M15
G01X7.3Y22.75
M16
G05
G00X13.15Y24.25
M15
G01X13.15Y22.75
M16
G05
T0
M30
