G04 #@! TF.GenerationSoftware,KiCad,Pcbnew,(5.1.5-0)*
G04 #@! TF.CreationDate,2020-05-15T15:03:54+09:00*
G04 #@! TF.ProjectId,3340VCO_frontpanel,33333430-5643-44f5-9f66-726f6e747061,rev?*
G04 #@! TF.SameCoordinates,PX1c9c380PYaba9500*
G04 #@! TF.FileFunction,Profile,NP*
%FSLAX46Y46*%
G04 Gerber Fmt 4.6, Leading zero omitted, Abs format (unit mm)*
G04 Created by KiCad (PCBNEW (5.1.5-0)) date 2020-05-15 15:03:54*
%MOMM*%
%LPD*%
G04 APERTURE LIST*
%ADD10C,0.050000*%
G04 APERTURE END LIST*
D10*
X12100000Y70500000D02*
G75*
G03X12100000Y70500000I-3600000J0D01*
G01*
X15650000Y70500000D02*
G75*
G03X15650000Y70500000I-1050000J0D01*
G01*
X15650000Y114000000D02*
G75*
G03X15650000Y114000000I-1050000J0D01*
G01*
X15650000Y99500000D02*
G75*
G03X15650000Y99500000I-1050000J0D01*
G01*
X15650000Y85000000D02*
G75*
G03X15650000Y85000000I-1050000J0D01*
G01*
X11100000Y58500000D02*
G75*
G03X11100000Y58500000I-3100000J0D01*
G01*
X11100000Y49500000D02*
G75*
G03X11100000Y49500000I-3100000J0D01*
G01*
X11100000Y40500000D02*
G75*
G03X11100000Y40500000I-3100000J0D01*
G01*
X11100000Y31500000D02*
G75*
G03X11100000Y31500000I-3100000J0D01*
G01*
X11100000Y22500000D02*
G75*
G03X11100000Y22500000I-3100000J0D01*
G01*
X11100000Y13500000D02*
G75*
G03X11100000Y13500000I-3100000J0D01*
G01*
X12100000Y114000000D02*
G75*
G03X12100000Y114000000I-3600000J0D01*
G01*
X12100000Y99500000D02*
G75*
G03X12100000Y99500000I-3600000J0D01*
G01*
X12100000Y85000000D02*
G75*
G03X12100000Y85000000I-3600000J0D01*
G01*
X9100000Y125500000D02*
G75*
G03X9100000Y125500000I-1600000J0D01*
G01*
X9100000Y3000000D02*
G75*
G03X9100000Y3000000I-1600000J0D01*
G01*
X0Y128500000D02*
X0Y0D01*
X20000000Y128500000D02*
X0Y128500000D01*
X20000000Y0D02*
X20000000Y128500000D01*
X0Y0D02*
X20000000Y0D01*
M02*
