G04 #@! TF.GenerationSoftware,KiCad,Pcbnew,(5.1.5)-3*
G04 #@! TF.CreationDate,2020-05-02T14:20:15+09:00*
G04 #@! TF.ProjectId,3340VCO_frontpanel,33333430-5643-44f5-9f66-726f6e747061,rev?*
G04 #@! TF.SameCoordinates,PX1c9c380PYaba9500*
G04 #@! TF.FileFunction,Legend,Top*
G04 #@! TF.FilePolarity,Positive*
%FSLAX46Y46*%
G04 Gerber Fmt 4.6, Leading zero omitted, Abs format (unit mm)*
G04 Created by KiCad (PCBNEW (5.1.5)-3) date 2020-05-02 14:20:15*
%MOMM*%
%LPD*%
G04 APERTURE LIST*
%ADD10C,0.150000*%
G04 APERTURE END LIST*
D10*
X9700000Y74117691D02*
X8000000Y77062178D01*
X11500000Y74600000D02*
X11500000Y78000000D01*
X15100000Y71000000D02*
X18500000Y71000000D01*
X13300000Y74117691D02*
X15000000Y77062178D01*
X9700000Y67882309D02*
X8000000Y64937822D01*
X8382309Y72800000D02*
X5437822Y74500000D01*
X8382309Y69200000D02*
X5437822Y67500000D01*
X7900000Y71000000D02*
X4500000Y71000000D01*
X14617691Y72800000D02*
X17562178Y74500000D01*
X14617691Y69200000D02*
X17562178Y67500000D01*
X13300000Y67882309D02*
X15000000Y64937822D01*
X9700000Y88617691D02*
X8000000Y91562178D01*
X11500000Y89100000D02*
X11500000Y92500000D01*
X15100000Y85500000D02*
X18500000Y85500000D01*
X13300000Y88617691D02*
X15000000Y91562178D01*
X9700000Y82382309D02*
X8000000Y79437822D01*
X8382309Y87300000D02*
X5437822Y89000000D01*
X8382309Y83700000D02*
X5437822Y82000000D01*
X7900000Y85500000D02*
X4500000Y85500000D01*
X14617691Y87300000D02*
X17562178Y89000000D01*
X14617691Y83700000D02*
X17562178Y82000000D01*
X13300000Y82382309D02*
X15000000Y79437822D01*
X9700000Y103117691D02*
X8000000Y106062178D01*
X11500000Y103600000D02*
X11500000Y107000000D01*
X15100000Y100000000D02*
X18500000Y100000000D01*
X13300000Y103117691D02*
X15000000Y106062178D01*
X9700000Y96882309D02*
X8000000Y93937822D01*
X8382309Y101800000D02*
X5437822Y103500000D01*
X8382309Y98200000D02*
X5437822Y96500000D01*
X7900000Y100000000D02*
X4500000Y100000000D01*
X14617691Y101800000D02*
X17562178Y103500000D01*
X14617691Y98200000D02*
X17562178Y96500000D01*
X13300000Y96882309D02*
X15000000Y93937822D01*
X6000000Y13500000D02*
X6000000Y11500000D01*
X4000000Y13500000D02*
X6000000Y13500000D01*
X4000000Y11500000D02*
X4000000Y13500000D01*
X2000000Y11500000D02*
X4000000Y11500000D01*
X6000000Y22500000D02*
X6000000Y20500000D01*
X2000000Y20500000D02*
X6000000Y22500000D01*
X4000000Y31500000D02*
X6000000Y29500000D01*
X2000000Y29500000D02*
X4000000Y31500000D01*
X1190476Y38595239D02*
X1190476Y40595239D01*
X1952380Y40595239D01*
X2142857Y40500000D01*
X2238095Y40404762D01*
X2333333Y40214286D01*
X2333333Y39928572D01*
X2238095Y39738096D01*
X2142857Y39642858D01*
X1952380Y39547620D01*
X1190476Y39547620D01*
X3000000Y40595239D02*
X3476190Y38595239D01*
X3857142Y40023810D01*
X4238095Y38595239D01*
X4714285Y40595239D01*
X5476190Y38595239D02*
X5476190Y40595239D01*
X6142857Y39166667D01*
X6809523Y40595239D01*
X6809523Y38595239D01*
X3142857Y48642858D02*
X2476190Y48642858D01*
X2476190Y47595239D02*
X2476190Y49595239D01*
X3428571Y49595239D01*
X4190476Y47595239D02*
X4190476Y49595239D01*
X4857142Y48166667D01*
X5523809Y49595239D01*
X5523809Y47595239D01*
X1333333Y57642858D02*
X666666Y57642858D01*
X666666Y56595239D02*
X666666Y58595239D01*
X1619047Y58595239D01*
X3523809Y56595239D02*
X2857142Y57547620D01*
X2380952Y56595239D02*
X2380952Y58595239D01*
X3142857Y58595239D01*
X3333333Y58500000D01*
X3428571Y58404762D01*
X3523809Y58214286D01*
X3523809Y57928572D01*
X3428571Y57738096D01*
X3333333Y57642858D01*
X3142857Y57547620D01*
X2380952Y57547620D01*
X4380952Y57642858D02*
X5047619Y57642858D01*
X5333333Y56595239D02*
X4380952Y56595239D01*
X4380952Y58595239D01*
X5333333Y58595239D01*
X7523809Y56404762D02*
X7333333Y56500000D01*
X7142857Y56690477D01*
X6857142Y56976191D01*
X6666666Y57071429D01*
X6476190Y57071429D01*
X6571428Y56595239D02*
X6380952Y56690477D01*
X6190476Y56880953D01*
X6095238Y57261905D01*
X6095238Y57928572D01*
X6190476Y58309524D01*
X6380952Y58500000D01*
X6571428Y58595239D01*
X6952380Y58595239D01*
X7142857Y58500000D01*
X7333333Y58309524D01*
X7428571Y57928572D01*
X7428571Y57261905D01*
X7333333Y56880953D01*
X7142857Y56690477D01*
X6952380Y56595239D01*
X6571428Y56595239D01*
X2904761Y64952381D02*
X904761Y64952381D01*
X904761Y65714286D01*
X1000000Y65904762D01*
X1095238Y66000000D01*
X1285714Y66095239D01*
X1571428Y66095239D01*
X1761904Y66000000D01*
X1857142Y65904762D01*
X1952380Y65714286D01*
X1952380Y64952381D01*
X904761Y66761905D02*
X2904761Y67238096D01*
X1476190Y67619048D01*
X2904761Y68000000D01*
X904761Y68476191D01*
X2904761Y69238096D02*
X904761Y69238096D01*
X2333333Y69904762D01*
X904761Y70571429D01*
X2904761Y70571429D01*
X2714285Y71523810D02*
X2809523Y71619048D01*
X2904761Y71523810D01*
X2809523Y71428572D01*
X2714285Y71523810D01*
X2904761Y71523810D01*
X2333333Y72380953D02*
X2333333Y73333334D01*
X2904761Y72190477D02*
X904761Y72857143D01*
X2904761Y73523810D01*
X2904761Y74190477D02*
X904761Y74190477D01*
X2333333Y74857143D01*
X904761Y75523810D01*
X2904761Y75523810D01*
X904761Y76190477D02*
X904761Y77333334D01*
X2904761Y76761905D02*
X904761Y76761905D01*
X2904761Y83833334D02*
X904761Y83833334D01*
X904761Y84595239D01*
X1000000Y84785715D01*
X1095238Y84880953D01*
X1285714Y84976191D01*
X1571428Y84976191D01*
X1761904Y84880953D01*
X1857142Y84785715D01*
X1952380Y84595239D01*
X1952380Y83833334D01*
X904761Y85642858D02*
X2904761Y86119048D01*
X1476190Y86500000D01*
X2904761Y86880953D01*
X904761Y87357143D01*
X1857142Y95904762D02*
X1857142Y95238096D01*
X2904761Y95238096D02*
X904761Y95238096D01*
X904761Y96190477D01*
X2904761Y96952381D02*
X904761Y96952381D01*
X2333333Y97619048D01*
X904761Y98285715D01*
X2904761Y98285715D01*
X2714285Y99238096D02*
X2809523Y99333334D01*
X2904761Y99238096D01*
X2809523Y99142858D01*
X2714285Y99238096D01*
X2904761Y99238096D01*
X2333333Y100095239D02*
X2333333Y101047620D01*
X2904761Y99904762D02*
X904761Y100571429D01*
X2904761Y101238096D01*
X2904761Y101904762D02*
X904761Y101904762D01*
X2333333Y102571429D01*
X904761Y103238096D01*
X2904761Y103238096D01*
X904761Y103904762D02*
X904761Y105047620D01*
X2904761Y104476191D02*
X904761Y104476191D01*
X1857142Y111833334D02*
X1857142Y111166667D01*
X2904761Y111166667D02*
X904761Y111166667D01*
X904761Y112119048D01*
X2904761Y114023810D02*
X1952380Y113357143D01*
X2904761Y112880953D02*
X904761Y112880953D01*
X904761Y113642858D01*
X1000000Y113833334D01*
X1095238Y113928572D01*
X1285714Y114023810D01*
X1571428Y114023810D01*
X1761904Y113928572D01*
X1857142Y113833334D01*
X1952380Y113642858D01*
X1952380Y112880953D01*
X1857142Y114880953D02*
X1857142Y115547620D01*
X2904761Y115833334D02*
X2904761Y114880953D01*
X904761Y114880953D01*
X904761Y115833334D01*
X3095238Y118023810D02*
X3000000Y117833334D01*
X2809523Y117642858D01*
X2523809Y117357143D01*
X2428571Y117166667D01*
X2428571Y116976191D01*
X2904761Y117071429D02*
X2809523Y116880953D01*
X2619047Y116690477D01*
X2238095Y116595239D01*
X1571428Y116595239D01*
X1190476Y116690477D01*
X1000000Y116880953D01*
X904761Y117071429D01*
X904761Y117452381D01*
X1000000Y117642858D01*
X1190476Y117833334D01*
X1571428Y117928572D01*
X2238095Y117928572D01*
X2619047Y117833334D01*
X2809523Y117642858D01*
X2904761Y117452381D01*
X2904761Y117071429D01*
X13300000Y111382309D02*
X15000000Y108437822D01*
X14617691Y112700000D02*
X17562178Y111000000D01*
X15100000Y114500000D02*
X18500000Y114500000D01*
X14617691Y116300000D02*
X17562178Y118000000D01*
X13300000Y117617691D02*
X15000000Y120562178D01*
X9700000Y111382309D02*
X8000000Y108437822D01*
X8382309Y112700000D02*
X5437822Y111000000D01*
X7900000Y114500000D02*
X4500000Y114500000D01*
X11500000Y118100000D02*
X11500000Y121500000D01*
X8382309Y116300000D02*
X5437822Y118000000D01*
X9700000Y117617691D02*
X8000000Y120562178D01*
X11569166Y127170239D02*
X12807261Y127170239D01*
X12140595Y126408334D01*
X12426309Y126408334D01*
X12616785Y126313096D01*
X12712023Y126217858D01*
X12807261Y126027381D01*
X12807261Y125551191D01*
X12712023Y125360715D01*
X12616785Y125265477D01*
X12426309Y125170239D01*
X11854880Y125170239D01*
X11664404Y125265477D01*
X11569166Y125360715D01*
X13473928Y127170239D02*
X14712023Y127170239D01*
X14045357Y126408334D01*
X14331071Y126408334D01*
X14521547Y126313096D01*
X14616785Y126217858D01*
X14712023Y126027381D01*
X14712023Y125551191D01*
X14616785Y125360715D01*
X14521547Y125265477D01*
X14331071Y125170239D01*
X13759642Y125170239D01*
X13569166Y125265477D01*
X13473928Y125360715D01*
X16426309Y126503572D02*
X16426309Y125170239D01*
X15950119Y127265477D02*
X15473928Y125836905D01*
X16712023Y125836905D01*
X17854880Y127170239D02*
X18045357Y127170239D01*
X18235833Y127075000D01*
X18331071Y126979762D01*
X18426309Y126789286D01*
X18521547Y126408334D01*
X18521547Y125932143D01*
X18426309Y125551191D01*
X18331071Y125360715D01*
X18235833Y125265477D01*
X18045357Y125170239D01*
X17854880Y125170239D01*
X17664404Y125265477D01*
X17569166Y125360715D01*
X17473928Y125551191D01*
X17378690Y125932143D01*
X17378690Y126408334D01*
X17473928Y126789286D01*
X17569166Y126979762D01*
X17664404Y127075000D01*
X17854880Y127170239D01*
X13283452Y124020239D02*
X13950119Y122020239D01*
X14616785Y124020239D01*
X16426309Y122210715D02*
X16331071Y122115477D01*
X16045357Y122020239D01*
X15854880Y122020239D01*
X15569166Y122115477D01*
X15378690Y122305953D01*
X15283452Y122496429D01*
X15188214Y122877381D01*
X15188214Y123163096D01*
X15283452Y123544048D01*
X15378690Y123734524D01*
X15569166Y123925000D01*
X15854880Y124020239D01*
X16045357Y124020239D01*
X16331071Y123925000D01*
X16426309Y123829762D01*
X17664404Y124020239D02*
X18045357Y124020239D01*
X18235833Y123925000D01*
X18426309Y123734524D01*
X18521547Y123353572D01*
X18521547Y122686905D01*
X18426309Y122305953D01*
X18235833Y122115477D01*
X18045357Y122020239D01*
X17664404Y122020239D01*
X17473928Y122115477D01*
X17283452Y122305953D01*
X17188214Y122686905D01*
X17188214Y123353572D01*
X17283452Y123734524D01*
X17473928Y123925000D01*
X17664404Y124020239D01*
M02*
