G04 #@! TF.GenerationSoftware,KiCad,Pcbnew,(5.1.5-0)*
G04 #@! TF.CreationDate,2020-05-15T15:03:54+09:00*
G04 #@! TF.ProjectId,3340VCO_frontpanel,33333430-5643-44f5-9f66-726f6e747061,rev?*
G04 #@! TF.SameCoordinates,PX1c9c380PYaba9500*
G04 #@! TF.FileFunction,Legend,Top*
G04 #@! TF.FilePolarity,Positive*
%FSLAX46Y46*%
G04 Gerber Fmt 4.6, Leading zero omitted, Abs format (unit mm)*
G04 Created by KiCad (PCBNEW (5.1.5-0)) date 2020-05-15 15:03:54*
%MOMM*%
%LPD*%
G04 APERTURE LIST*
%ADD10C,0.150000*%
G04 APERTURE END LIST*
D10*
X10300000Y110882309D02*
X12250000Y107504809D01*
X11617691Y115800000D02*
X14995191Y117750000D01*
X4900000Y114000000D02*
X1000000Y114000000D01*
X6700000Y110882309D02*
X4750000Y107504809D01*
X6700000Y117117691D02*
X4750000Y120495191D01*
X5382309Y112200000D02*
X2004809Y110250000D01*
X10300000Y117117691D02*
X12250000Y120495191D01*
X6700000Y117117691D02*
X4750000Y120495191D01*
X5382309Y115800000D02*
X2004809Y117750000D01*
X8500000Y121500000D02*
X8500000Y117600000D01*
X11617691Y112200000D02*
X14995191Y110250000D01*
X12100000Y114000000D02*
X16000000Y114000000D01*
X10300000Y110882309D02*
X12250000Y107504809D01*
X10300000Y96382309D02*
X12250000Y93004809D01*
X11617691Y101300000D02*
X14995191Y103250000D01*
X4900000Y99500000D02*
X1000000Y99500000D01*
X6700000Y96382309D02*
X4750000Y93004809D01*
X6700000Y102617691D02*
X4750000Y105995191D01*
X5382309Y97700000D02*
X2004809Y95750000D01*
X10300000Y102617691D02*
X12250000Y105995191D01*
X6700000Y102617691D02*
X4750000Y105995191D01*
X5382309Y101300000D02*
X2004809Y103250000D01*
X8500000Y107000000D02*
X8500000Y103100000D01*
X11617691Y97700000D02*
X14995191Y95750000D01*
X12100000Y99500000D02*
X16000000Y99500000D01*
X10300000Y96382309D02*
X12250000Y93004809D01*
X10300000Y81882309D02*
X12250000Y78504809D01*
X11617691Y86800000D02*
X14995191Y88750000D01*
X4900000Y85000000D02*
X1000000Y85000000D01*
X6700000Y81882309D02*
X4750000Y78504809D01*
X6700000Y88117691D02*
X4750000Y91495191D01*
X5382309Y83200000D02*
X2004809Y81250000D01*
X10300000Y88117691D02*
X12250000Y91495191D01*
X6700000Y88117691D02*
X4750000Y91495191D01*
X5382309Y86800000D02*
X2004809Y88750000D01*
X8500000Y92500000D02*
X8500000Y88600000D01*
X11617691Y83200000D02*
X14995191Y81250000D01*
X12100000Y85000000D02*
X16000000Y85000000D01*
X10300000Y81882309D02*
X12250000Y78504809D01*
X6700000Y73617691D02*
X4750000Y76995191D01*
X5382309Y68700000D02*
X2004809Y66750000D01*
X6700000Y67382309D02*
X4750000Y64004809D01*
X5382309Y72300000D02*
X2004809Y74250000D01*
X4900000Y70500000D02*
X1000000Y70500000D01*
X6700000Y73617691D02*
X4750000Y76995191D01*
X10300000Y73617691D02*
X12250000Y76995191D01*
X11617691Y72300000D02*
X14995191Y74250000D01*
X12100000Y70500000D02*
X16000000Y70500000D01*
X11617691Y68700000D02*
X14995191Y66750000D01*
X10300000Y67382309D02*
X12250000Y64004809D01*
X10300000Y67382309D02*
X12250000Y64004809D01*
X18000000Y14500000D02*
X18000000Y12500000D01*
X16000000Y14500000D02*
X18000000Y14500000D01*
X16000000Y12500000D02*
X16000000Y14500000D01*
X14000000Y12500000D02*
X16000000Y12500000D01*
X18000000Y23500000D02*
X18000000Y21500000D01*
X14000000Y21500000D02*
X18000000Y23500000D01*
X16000000Y32500000D02*
X18000000Y30500000D01*
X14000000Y30500000D02*
X16000000Y32500000D01*
X13190476Y39595239D02*
X13190476Y41595239D01*
X13952380Y41595239D01*
X14142857Y41500000D01*
X14238095Y41404762D01*
X14333333Y41214286D01*
X14333333Y40928572D01*
X14238095Y40738096D01*
X14142857Y40642858D01*
X13952380Y40547620D01*
X13190476Y40547620D01*
X15000000Y41595239D02*
X15476190Y39595239D01*
X15857142Y41023810D01*
X16238095Y39595239D01*
X16714285Y41595239D01*
X17476190Y39595239D02*
X17476190Y41595239D01*
X18142857Y40166667D01*
X18809523Y41595239D01*
X18809523Y39595239D01*
X15142857Y49642858D02*
X14476190Y49642858D01*
X14476190Y48595239D02*
X14476190Y50595239D01*
X15428571Y50595239D01*
X16190476Y48595239D02*
X16190476Y50595239D01*
X16857142Y49166667D01*
X17523809Y50595239D01*
X17523809Y48595239D01*
X13333333Y58642858D02*
X12666666Y58642858D01*
X12666666Y57595239D02*
X12666666Y59595239D01*
X13619047Y59595239D01*
X15523809Y57595239D02*
X14857142Y58547620D01*
X14380952Y57595239D02*
X14380952Y59595239D01*
X15142857Y59595239D01*
X15333333Y59500000D01*
X15428571Y59404762D01*
X15523809Y59214286D01*
X15523809Y58928572D01*
X15428571Y58738096D01*
X15333333Y58642858D01*
X15142857Y58547620D01*
X14380952Y58547620D01*
X16380952Y58642858D02*
X17047619Y58642858D01*
X17333333Y57595239D02*
X16380952Y57595239D01*
X16380952Y59595239D01*
X17333333Y59595239D01*
X19523809Y57404762D02*
X19333333Y57500000D01*
X19142857Y57690477D01*
X18857142Y57976191D01*
X18666666Y58071429D01*
X18476190Y58071429D01*
X18571428Y57595239D02*
X18380952Y57690477D01*
X18190476Y57880953D01*
X18095238Y58261905D01*
X18095238Y58928572D01*
X18190476Y59309524D01*
X18380952Y59500000D01*
X18571428Y59595239D01*
X18952380Y59595239D01*
X19142857Y59500000D01*
X19333333Y59309524D01*
X19428571Y58928572D01*
X19428571Y58261905D01*
X19333333Y57880953D01*
X19142857Y57690477D01*
X18952380Y57595239D01*
X18571428Y57595239D01*
X17857142Y111333334D02*
X17857142Y110666667D01*
X18904761Y110666667D02*
X16904761Y110666667D01*
X16904761Y111619048D01*
X18904761Y113523810D02*
X17952380Y112857143D01*
X18904761Y112380953D02*
X16904761Y112380953D01*
X16904761Y113142858D01*
X17000000Y113333334D01*
X17095238Y113428572D01*
X17285714Y113523810D01*
X17571428Y113523810D01*
X17761904Y113428572D01*
X17857142Y113333334D01*
X17952380Y113142858D01*
X17952380Y112380953D01*
X17857142Y114380953D02*
X17857142Y115047620D01*
X18904761Y115333334D02*
X18904761Y114380953D01*
X16904761Y114380953D01*
X16904761Y115333334D01*
X19095238Y117523810D02*
X19000000Y117333334D01*
X18809523Y117142858D01*
X18523809Y116857143D01*
X18428571Y116666667D01*
X18428571Y116476191D01*
X18904761Y116571429D02*
X18809523Y116380953D01*
X18619047Y116190477D01*
X18238095Y116095239D01*
X17571428Y116095239D01*
X17190476Y116190477D01*
X17000000Y116380953D01*
X16904761Y116571429D01*
X16904761Y116952381D01*
X17000000Y117142858D01*
X17190476Y117333334D01*
X17571428Y117428572D01*
X18238095Y117428572D01*
X18619047Y117333334D01*
X18809523Y117142858D01*
X18904761Y116952381D01*
X18904761Y116571429D01*
X17857142Y95404762D02*
X17857142Y94738096D01*
X18904761Y94738096D02*
X16904761Y94738096D01*
X16904761Y95690477D01*
X18904761Y96452381D02*
X16904761Y96452381D01*
X18333333Y97119048D01*
X16904761Y97785715D01*
X18904761Y97785715D01*
X18714285Y98738096D02*
X18809523Y98833334D01*
X18904761Y98738096D01*
X18809523Y98642858D01*
X18714285Y98738096D01*
X18904761Y98738096D01*
X18333333Y99595239D02*
X18333333Y100547620D01*
X18904761Y99404762D02*
X16904761Y100071429D01*
X18904761Y100738096D01*
X18904761Y101404762D02*
X16904761Y101404762D01*
X18333333Y102071429D01*
X16904761Y102738096D01*
X18904761Y102738096D01*
X16904761Y103404762D02*
X16904761Y104547620D01*
X18904761Y103976191D02*
X16904761Y103976191D01*
X18904761Y83333334D02*
X16904761Y83333334D01*
X16904761Y84095239D01*
X17000000Y84285715D01*
X17095238Y84380953D01*
X17285714Y84476191D01*
X17571428Y84476191D01*
X17761904Y84380953D01*
X17857142Y84285715D01*
X17952380Y84095239D01*
X17952380Y83333334D01*
X16904761Y85142858D02*
X18904761Y85619048D01*
X17476190Y86000000D01*
X18904761Y86380953D01*
X16904761Y86857143D01*
X18904761Y64452381D02*
X16904761Y64452381D01*
X16904761Y65214286D01*
X17000000Y65404762D01*
X17095238Y65500000D01*
X17285714Y65595239D01*
X17571428Y65595239D01*
X17761904Y65500000D01*
X17857142Y65404762D01*
X17952380Y65214286D01*
X17952380Y64452381D01*
X16904761Y66261905D02*
X18904761Y66738096D01*
X17476190Y67119048D01*
X18904761Y67500000D01*
X16904761Y67976191D01*
X18904761Y68738096D02*
X16904761Y68738096D01*
X18333333Y69404762D01*
X16904761Y70071429D01*
X18904761Y70071429D01*
X18714285Y71023810D02*
X18809523Y71119048D01*
X18904761Y71023810D01*
X18809523Y70928572D01*
X18714285Y71023810D01*
X18904761Y71023810D01*
X18333333Y71880953D02*
X18333333Y72833334D01*
X18904761Y71690477D02*
X16904761Y72357143D01*
X18904761Y73023810D01*
X18904761Y73690477D02*
X16904761Y73690477D01*
X18333333Y74357143D01*
X16904761Y75023810D01*
X18904761Y75023810D01*
X16904761Y75690477D02*
X16904761Y76833334D01*
X18904761Y76261905D02*
X16904761Y76261905D01*
X8500000Y78000000D02*
X8500000Y74100000D01*
X11569166Y127170239D02*
X12807261Y127170239D01*
X12140595Y126408334D01*
X12426309Y126408334D01*
X12616785Y126313096D01*
X12712023Y126217858D01*
X12807261Y126027381D01*
X12807261Y125551191D01*
X12712023Y125360715D01*
X12616785Y125265477D01*
X12426309Y125170239D01*
X11854880Y125170239D01*
X11664404Y125265477D01*
X11569166Y125360715D01*
X13473928Y127170239D02*
X14712023Y127170239D01*
X14045357Y126408334D01*
X14331071Y126408334D01*
X14521547Y126313096D01*
X14616785Y126217858D01*
X14712023Y126027381D01*
X14712023Y125551191D01*
X14616785Y125360715D01*
X14521547Y125265477D01*
X14331071Y125170239D01*
X13759642Y125170239D01*
X13569166Y125265477D01*
X13473928Y125360715D01*
X16426309Y126503572D02*
X16426309Y125170239D01*
X15950119Y127265477D02*
X15473928Y125836905D01*
X16712023Y125836905D01*
X17854880Y127170239D02*
X18045357Y127170239D01*
X18235833Y127075000D01*
X18331071Y126979762D01*
X18426309Y126789286D01*
X18521547Y126408334D01*
X18521547Y125932143D01*
X18426309Y125551191D01*
X18331071Y125360715D01*
X18235833Y125265477D01*
X18045357Y125170239D01*
X17854880Y125170239D01*
X17664404Y125265477D01*
X17569166Y125360715D01*
X17473928Y125551191D01*
X17378690Y125932143D01*
X17378690Y126408334D01*
X17473928Y126789286D01*
X17569166Y126979762D01*
X17664404Y127075000D01*
X17854880Y127170239D01*
X13283452Y124020239D02*
X13950119Y122020239D01*
X14616785Y124020239D01*
X16426309Y122210715D02*
X16331071Y122115477D01*
X16045357Y122020239D01*
X15854880Y122020239D01*
X15569166Y122115477D01*
X15378690Y122305953D01*
X15283452Y122496429D01*
X15188214Y122877381D01*
X15188214Y123163096D01*
X15283452Y123544048D01*
X15378690Y123734524D01*
X15569166Y123925000D01*
X15854880Y124020239D01*
X16045357Y124020239D01*
X16331071Y123925000D01*
X16426309Y123829762D01*
X17664404Y124020239D02*
X18045357Y124020239D01*
X18235833Y123925000D01*
X18426309Y123734524D01*
X18521547Y123353572D01*
X18521547Y122686905D01*
X18426309Y122305953D01*
X18235833Y122115477D01*
X18045357Y122020239D01*
X17664404Y122020239D01*
X17473928Y122115477D01*
X17283452Y122305953D01*
X17188214Y122686905D01*
X17188214Y123353572D01*
X17283452Y123734524D01*
X17473928Y123925000D01*
X17664404Y124020239D01*
M02*
