G04 #@! TF.GenerationSoftware,KiCad,Pcbnew,(5.1.5)-3*
G04 #@! TF.CreationDate,2020-05-02T14:20:15+09:00*
G04 #@! TF.ProjectId,3340VCO_frontpanel,33333430-5643-44f5-9f66-726f6e747061,rev?*
G04 #@! TF.SameCoordinates,PX1c9c380PYaba9500*
G04 #@! TF.FileFunction,Profile,NP*
%FSLAX46Y46*%
G04 Gerber Fmt 4.6, Leading zero omitted, Abs format (unit mm)*
G04 Created by KiCad (PCBNEW (5.1.5)-3) date 2020-05-02 14:20:15*
%MOMM*%
%LPD*%
G04 APERTURE LIST*
%ADD10C,0.050000*%
G04 APERTURE END LIST*
D10*
X6450000Y71000000D02*
G75*
G03X6450000Y71000000I-1050000J0D01*
G01*
X6450000Y85500000D02*
G75*
G03X6450000Y85500000I-1050000J0D01*
G01*
X6450000Y100000000D02*
G75*
G03X6450000Y100000000I-1050000J0D01*
G01*
X6450000Y114500000D02*
G75*
G03X6450000Y114500000I-1050000J0D01*
G01*
X15100000Y12500000D02*
G75*
G03X15100000Y12500000I-3100000J0D01*
G01*
X15100000Y21500000D02*
G75*
G03X15100000Y21500000I-3100000J0D01*
G01*
X15100000Y30500000D02*
G75*
G03X15100000Y30500000I-3100000J0D01*
G01*
X15100000Y39500000D02*
G75*
G03X15100000Y39500000I-3100000J0D01*
G01*
X15100000Y48500000D02*
G75*
G03X15100000Y48500000I-3100000J0D01*
G01*
X15100000Y57500000D02*
G75*
G03X15100000Y57500000I-3100000J0D01*
G01*
X15100000Y71000000D02*
G75*
G03X15100000Y71000000I-3600000J0D01*
G01*
X15100000Y85500000D02*
G75*
G03X15100000Y85500000I-3600000J0D01*
G01*
X15100000Y100000000D02*
G75*
G03X15100000Y100000000I-3600000J0D01*
G01*
X15100000Y114500000D02*
G75*
G03X15100000Y114500000I-3600000J0D01*
G01*
X9100000Y125500000D02*
G75*
G03X9100000Y125500000I-1600000J0D01*
G01*
X9100000Y3000000D02*
G75*
G03X9100000Y3000000I-1600000J0D01*
G01*
X0Y128500000D02*
X0Y0D01*
X20000000Y128500000D02*
X0Y128500000D01*
X20000000Y0D02*
X20000000Y128500000D01*
X0Y0D02*
X20000000Y0D01*
M02*
